# xmcd
#
# Track frame offsets: 
#        150
#        3875
#        19302
#        47955
#        66880
#        94312
#        113617
#        138037
#        160717
#        188927
#        206537
#        221515
#        245510
#        270797
#        292285
#
# Disc length: 4376 seconds
#
# Revision: 6
# Processed by: cddbd v1.5.2PL0 Copyright (c) Steve Scherf et al.
# Submitted via: ExactAudioCopy v0.99pb4
#
DISCID=d311160f
DTITLE=The Rolling Stones - No Security (VJCP-25426)
DYEAR=1998
DGENRE=Rock
TTITLE0=Intro
TTITLE1=You Got Me Rocking
TTITLE2=Gimme Shelter
TTITLE3=Flip The Switch
TTITLE4=Memory Motel
TTITLE5=Corinna
TTITLE6=Saint Of Me
TTITLE7=Waiting On A Friend
TTITLE8=Sister Morphine
TTITLE9=Live With Me
TTITLE10=Respectable
TTITLE11=I Just Want To Make Love To You
TTITLE12=Thief In The Night (Bonus Track For Japan)
TTITLE13=The Last Time
TTITLE14=Out Of Control
EXTD=YEAR: 1998
EXTT0=
EXTT1=
EXTT2=
EXTT3=
EXTT4=
EXTT5=
EXTT6=
EXTT7=
EXTT8=
EXTT9=
EXTT10=
EXTT11=
EXTT12=
EXTT13=
EXTT14=
PLAYORDER=
